<svg height="512" viewBox="0 0 480 480" width="512" xmlns="http://www.w3.org/2000/svg"><g id="Layer_2" data-name="Layer 2"><g id="progress_bar"><circle id="background" cx="240" cy="240" fill="#048cf2" r="240"/><g id="icon" fill="#fff"><path d="m120 297.14a39.71 39.71 0 0 0 39.7 39.71h160.6a39.71 39.71 0 0 0 39.7-39.71 39.71 39.71 0 0 0 -39.7-39.7h-160.6a39.71 39.71 0 0 0 -39.7 39.7zm116.29 0a15.42 15.42 0 0 1 15.42-15.43h68.58a15.42 15.42 0 0 1 15.42 15.43 15.42 15.42 0 0 1 -15.42 15.43h-68.58a15.42 15.42 0 0 1 -15.42-15.43z"/><path d="m120 182.86a39.71 39.71 0 0 0 39.7 39.7h160.6a39.71 39.71 0 0 0 39.7-39.7 39.71 39.71 0 0 0 -39.7-39.71h-160.6a39.71 39.71 0 0 0 -39.7 39.71zm56.86 0a15.43 15.43 0 0 1 15.43-15.43h128a15.42 15.42 0 0 1 15.42 15.43 15.42 15.42 0 0 1 -15.42 15.43h-128a15.43 15.43 0 0 1 -15.43-15.43z"/></g></g></g></svg>